<?xml version="1.0" encoding="UTF-8"?>
<svg version="1.1" xmlns="http://www.w3.org/2000/svg" width="1000" height="261">
<path d="M0 0 C1.72974441 0.00015918 3.45949355 0.0058569 5.18920898 0.01586914 C6.09783188 0.01728409 7.00645477 0.01869904 7.94261169 0.02015686 C10.85687494 0.02577346 13.77106254 0.03832874 16.68530273 0.05102539 C18.65600475 0.05603825 20.62670797 0.06060153 22.59741211 0.06469727 C27.43923832 0.07574828 32.28100768 0.09302401 37.12280273 0.11352539 C41.97686701 11.12174666 45.88099736 22.46019681 49.87280273 33.80102539 C51.30518159 37.86004874 52.73919751 41.91849237 54.17358398 45.97680664 C54.52107193 46.96096558 54.86855988 47.94512451 55.22657776 48.95910645 C57.06717402 54.16348456 58.93257656 59.35614322 60.85327148 64.53149414 C66.77908563 80.502578 71.54648759 96.71301907 76.12280273 113.11352539 C79.02124785 106.86639125 81.02677987 100.37631374 83.13449097 93.82806396 C89.07649063 75.45602888 96.04056037 57.53104298 103.1651001 39.59109497 C105.40109533 33.95678248 107.60362319 28.31055069 109.77905273 22.65258789 C110.06148331 21.91849701 110.34391388 21.18440613 110.63490295 20.42807007 C111.70315541 17.64966141 112.77052709 14.87092549 113.834198 12.09075928 C114.54139629 10.24330518 115.25192173 8.39712571 115.96264648 6.55102539 C116.55613892 5.0022168 116.55613892 5.0022168 117.16162109 3.42211914 C118.12280273 1.11352539 118.12280273 1.11352539 119.12280273 0.11352539 C122.06815844 0.01242186 124.98957833 -0.0261674 127.93530273 -0.01928711 C128.81935791 -0.02024384 129.70341309 -0.02120056 130.61425781 -0.02218628 C132.48722403 -0.02286812 134.36019259 -0.02101354 136.2331543 -0.0168457 C139.11048661 -0.0114975 141.98766281 -0.01679054 144.86499023 -0.02319336 C146.68009475 -0.02253258 148.49519916 -0.02125142 150.31030273 -0.01928711 C151.17695557 -0.02131134 152.0436084 -0.02333557 152.93652344 -0.02542114 C159.00785264 -0.0014247 159.00785264 -0.0014247 160.12280273 1.11352539 C160.39103072 3.86241167 160.59694105 6.59318826 160.76464844 9.34887695 C160.82111479 10.21858879 160.87758114 11.08830063 160.93575859 11.98436737 C161.12401858 14.90734264 161.30519764 17.83071015 161.48608398 20.75415039 C161.61740259 22.82628738 161.74894288 24.89841033 161.88069153 26.97052002 C163.31028608 49.60693265 164.62283352 72.25051849 165.91259766 94.89526367 C166.24891241 100.79859025 166.58962009 106.70165509 166.93133068 112.60467148 C167.19839693 117.22860537 167.46284092 121.85268646 167.72652626 126.47681427 C167.85121831 128.65681323 167.97679558 130.83676176 168.10332298 133.01665497 C168.27815564 136.03414807 168.44934234 139.05182747 168.61962891 142.06958008 C168.6710202 142.9431868 168.7224115 143.81679352 168.77536011 144.71687317 C169.09905523 150.54384458 169.12280273 156.25673945 169.12280273 162.11352539 C158.89280273 162.11352539 148.66280273 162.11352539 138.12280273 162.11352539 C136.99783578 153.11378976 136.99783578 153.11378976 136.81945801 149.31523132 C136.77745773 148.4534729 136.73545746 147.59171448 136.69218445 146.70384216 C136.65059708 145.7867598 136.6090097 144.86967743 136.56616211 143.92480469 C136.51885452 142.93668793 136.47154694 141.94857117 136.42280579 140.93051147 C136.3210522 138.79664684 136.2207165 136.66271422 136.12165833 134.52872276 C135.96449518 131.14342441 135.8035747 127.7583225 135.64172363 124.37324524 C135.29864691 117.18266595 134.96060033 109.99185429 134.62280273 102.80102539 C134.23100473 94.47403043 133.83712001 86.14713988 133.43965149 77.82041359 C133.28200321 74.49988953 133.12729859 71.17923717 132.97277832 67.85856628 C132.87513034 65.80251456 132.77735842 63.74646871 132.67944336 61.69042969 C132.63785599 60.77942001 132.59626862 59.86841034 132.55342102 58.92979431 C132.24979583 52.63888124 131.73648146 46.38156293 131.12280273 40.11352539 C130.86515137 40.90331787 130.6075 41.69311035 130.34204102 42.50683594 C122.4062336 66.63634473 113.60450658 90.42096461 104.62280273 114.17602539 C104.18839748 115.32519754 104.18839748 115.32519754 103.74521637 116.4975853 C98.24258267 131.05092316 92.7167966 145.59502058 87.12280273 160.11352539 C78.54280273 160.11352539 69.96280273 160.11352539 61.12280273 160.11352539 C58.42546418 152.28763391 55.7294785 144.46127983 53.03559303 136.63419914 C51.78336884 132.99602001 50.53065141 129.35801264 49.27661133 125.72045898 C46.11315914 116.54332766 42.96170579 107.36218029 39.82673645 98.17527771 C39.13519999 96.14983572 38.44223017 94.12488823 37.74914551 92.09997559 C31.9874934 75.24549924 26.70303091 58.32982203 22.12280273 41.11352539 C22.06460358 42.17221329 22.00640442 43.23090118 21.94644165 44.32167053 C21.38937954 54.45152383 20.83073825 64.58128906 20.27066994 74.7109766 C19.98299593 79.91486114 19.69582007 85.11877202 19.40991211 90.32275391 C18.09432948 114.26160294 16.71415192 138.19123413 15.12280273 162.11352539 C5.22280273 162.11352539 -4.67719727 162.11352539 -14.87719727 162.11352539 C-14.87719727 147.48793295 -14.87719727 147.48793295 -14.50428772 141.93829346 C-14.42159134 140.67657318 -14.33889496 139.41485291 -14.25369263 138.11489868 C-14.16091689 136.76580196 -14.06804891 135.41671159 -13.97509766 134.06762695 C-13.87784068 132.60924628 -13.78095323 131.15084093 -13.68440247 129.69241333 C-13.42394584 125.7756044 -13.15805185 121.85918313 -12.89083791 117.94283009 C-12.66785635 114.66673533 -12.44769166 111.39045374 -12.22753805 108.11416793 C-11.70878628 100.39428758 -11.18570416 92.67470944 -10.65966797 84.95532227 C-10.11684472 76.98871162 -9.58059593 69.02167786 -9.047638 61.05440164 C-8.58902898 54.20129531 -8.126829 47.34843805 -7.66161531 40.49577689 C-7.38408792 36.40761378 -7.10784456 32.3193746 -6.83488655 28.23090363 C-6.57886994 24.39905441 -6.31836811 20.56753661 -6.05431938 16.73623276 C-5.95797532 15.32737676 -5.86322918 13.91841049 -5.77015686 12.50933456 C-5.6434078 10.59425331 -5.51043561 8.67958689 -5.37709045 6.76495361 C-5.30426881 5.69135715 -5.23144716 4.6177607 -5.1564188 3.51163101 C-4.69328837 -0.4659837 -4.26466943 0.12487068 0 0 Z " fill="#001589" transform="translate(14.877197265625,53.886474609375)"/>
<path d="M0 0 C7.94993831 5.01583275 12.34922459 13.65512397 17.0625 21.5 C18.47206208 23.82356497 19.88640098 26.14420936 21.30078125 28.46484375 C21.6555806 29.04818481 22.01037994 29.63152588 22.37593079 30.23254395 C26.99467436 37.81316706 31.78966693 45.28122797 36.57421875 52.7578125 C37.57040782 54.31764746 38.56650557 55.87754075 39.5625 57.4375 C40.0467041 58.1912793 40.5309082 58.94505859 41.02978516 59.72167969 C41.48015137 60.42969727 41.93051758 61.13771484 42.39453125 61.8671875 C42.98778198 62.7950708 42.98778198 62.7950708 43.59301758 63.74169922 C46.8735347 69.4799193 46.5848227 77.61918629 44.9140625 83.859375 C40.82164854 92.88367245 31.40102067 97.61998036 23.3125 102.5625 C21.16509285 103.88888308 19.01796081 105.21571166 16.87109375 106.54296875 C15.80745605 107.1982959 14.74381836 107.85362305 13.64794922 108.52880859 C9.20300026 111.27850087 4.78822482 114.07478799 0.375 116.875 C-5.05263421 120.30744864 -10.48199323 123.73697407 -15.9375 127.125 C-16.9378125 127.74761719 -17.938125 128.37023437 -18.96875 129.01171875 C-25.10907631 132.55795151 -33.08144664 132.60379816 -39.859375 130.7890625 C-48.88367245 126.69664854 -53.61998036 117.27602067 -58.5625 109.1875 C-59.88888308 107.04009285 -61.21571166 104.89296081 -62.54296875 102.74609375 C-63.1982959 101.68245605 -63.85362305 100.61881836 -64.52880859 99.52294922 C-67.27850087 95.07800026 -70.07478799 90.66322482 -72.875 86.25 C-76.30744864 80.82236579 -79.73697407 75.39300677 -83.125 69.9375 C-83.74761719 68.9371875 -84.37023437 67.936875 -85.01171875 66.90625 C-88.49533145 60.87435075 -88.09794308 54.20704159 -87.4375 47.4375 C-83.89506565 37.57365262 -73.67267926 32.54861793 -65.25 27.375 C-63.09348778 26.03948582 -60.93724103 24.7035429 -58.78125 23.3671875 C-57.71132813 22.70557617 -56.64140625 22.04396484 -55.5390625 21.36230469 C-51.09184515 18.60239745 -46.67008626 15.80307023 -42.25 13 C-36.82226977 9.56770015 -31.39300856 6.13802704 -25.9375 2.75 C-24.9371875 2.12738281 -23.936875 1.50476563 -22.90625 0.86328125 C-16.36471076 -2.91466467 -6.89492771 -3.12676954 0 0 Z " fill="#001589" transform="translate(953.4375,62.5625)"/>
<path d="M0 0 C0.66 32.01 1.32 64.02 2 97 C5.63 92.71 9.26 88.42 13 84 C18.125 78.375 18.125 78.375 20.59375 75.6875 C23.72439324 72.19093742 26.67442564 68.56603586 29.6015625 64.8984375 C30.39304687 63.94195312 31.18453125 62.98546875 32 62 C32.45729492 61.23469971 32.91458984 60.46939941 33.38574219 59.6809082 C35.70016901 56.30265596 37.78449511 53.53477463 41.93438721 52.53308105 C47.61487359 51.86846017 53.30157529 52.18111926 59 52.4375 C60.74599052 52.48269682 62.49209345 52.52375232 64.23828125 52.56054688 C68.49498436 52.65921064 72.74624647 52.81418415 77 53 C77 57.65627862 75.94394326 58.51822759 72.78369141 61.69514465 C72.17444824 62.28687973 71.56520508 62.87861481 70.9375 63.48828125 C70.00043213 64.42041695 70.00043213 64.42041695 69.04443359 65.37138367 C67.03878396 67.3612667 65.01943057 69.33661445 63 71.3125 C61.66971264 72.63129425 60.34027552 73.95094674 59.01171875 75.27148438 C53.31594763 80.91322275 47.61542489 86.5086842 41.5078125 91.70825195 C39.57774463 93.3617476 37.77794262 95.12251691 36 96.9375 C35.4225 97.52402344 34.845 98.11054688 34.25 98.71484375 C33.8375 99.13894531 33.425 99.56304687 33 100 C34.56657742 105.25264192 37.95447906 108.84568832 41.4375 112.9375 C42.71875203 114.46635595 43.99868505 115.9963182 45.27734375 117.52734375 C45.91140137 118.28515137 46.54545898 119.04295898 47.19873047 119.82373047 C49.69255222 122.83673224 52.10302102 125.90978816 54.5 129 C58.57821704 134.24190669 62.76504825 139.38403164 67 144.5 C68.76027526 146.63638798 70.51935224 148.77375507 72.27783203 150.91162109 C73.41861423 152.29498527 74.56278286 153.67556435 75.71044922 155.05322266 C77.29837399 156.963308 78.86961852 158.88595282 80.4375 160.8125 C80.91638672 161.38097656 81.39527344 161.94945312 81.88867188 162.53515625 C83.18359375 164.14453125 83.18359375 164.14453125 85 167 C84.61352539 169.1784668 84.61352539 169.1784668 84 171 C51.41738717 173.83579982 51.41738717 173.83579982 43.11767578 169.49121094 C38.84560223 165.57736393 36.50079424 160.69925794 34.18359375 155.45849609 C32.27844988 151.50123562 29.59877776 148.23365364 26.875 144.8125 C25.89430815 143.52005 24.91770727 142.22448518 23.9453125 140.92578125 C23.46481445 140.28721191 22.98431641 139.64864258 22.48925781 138.99072266 C18.27870479 133.3623867 14.14390584 127.6774773 10 122 C5.91878674 123.51156047 3.1493018 126.28125936 1 130 C0.29698964 133.10742818 0.30141813 136.12435639 0.328125 139.30078125 C0.30900055 140.61625191 0.30900055 140.61625191 0.28948975 141.95829773 C0.25330735 144.74336478 0.25048142 147.52721898 0.25 150.3125 C0.22840583 153.11518282 0.20001106 155.91768242 0.16766357 158.72026062 C0.14985787 160.46076863 0.13961332 162.20137301 0.13751221 163.94197083 C0.10852746 169.89147254 0.10852746 169.89147254 -1 171 C-3.13353174 171.10003289 -5.27037542 171.13081048 -7.40625 171.1328125 C-8.70691406 171.13410156 -10.00757813 171.13539063 -11.34765625 171.13671875 C-12.02844238 171.13462402 -12.70922852 171.1325293 -13.41064453 171.13037109 C-15.49128515 171.1250224 -17.57170989 171.1303168 -19.65234375 171.13671875 C-21.60333984 171.13478516 -21.60333984 171.13478516 -23.59375 171.1328125 C-24.79708984 171.13168457 -26.00042969 171.13055664 -27.24023438 171.12939453 C-30 171 -30 171 -31 170 C-31.096937 167.84840274 -31.12186783 165.69355889 -31.12025452 163.53977966 C-31.12153615 162.51556816 -31.12153615 162.51556816 -31.12284368 161.47066551 C-31.12450043 159.16588309 -31.11897397 156.86117228 -31.11352539 154.55639648 C-31.11324353 152.91094972 -31.11340122 151.26550284 -31.1139679 149.62005615 C-31.11425593 145.13884241 -31.10835821 140.65765519 -31.10139394 136.17644763 C-31.09516142 131.49857895 -31.09455668 126.82070972 -31.09336853 122.14283752 C-31.09025491 113.27824832 -31.08204111 104.41367138 -31.07201904 95.54908758 C-31.06085885 85.45977798 -31.05534769 75.3704678 -31.05032361 65.28115356 C-31.03985852 44.52076218 -31.02225849 23.76038186 -31 3 C-27.85461305 2.51787364 -24.70861404 2.03985675 -21.5625 1.5625 C-20.68400391 1.42779297 -19.80550781 1.29308594 -18.90039062 1.15429688 C-2.61813916 -1.30906958 -2.61813916 -1.30906958 0 0 Z " fill="#001589" transform="translate(684,45)"/>
<path d="M0 0 C10.80871603 8.857408 16.99899822 21.23977775 19 35 C20.4817675 50.36984309 20.4817675 50.36984309 16 56 C12.40975437 58.4493495 8.75804715 58.27030832 4.56933594 58.22705078 C3.82748047 58.22734283 3.085625 58.22763489 2.32128906 58.22793579 C-0.12446901 58.22654533 -2.56992032 58.21099765 -5.015625 58.1953125 C-6.71384515 58.19158136 -8.41206745 58.18873486 -10.11029053 58.18673706 C-14.57537807 58.17910857 -19.04033506 58.15946681 -23.50537109 58.1373291 C-28.0634586 58.11685379 -32.62156724 58.10773174 -37.1796875 58.09765625 C-46.11984896 58.07622018 -55.05991361 58.04209368 -64 58 C-63.39093721 59.59066647 -62.7750062 61.17870406 -62.15625 62.765625 C-61.81400391 63.65024414 -61.47175781 64.53486328 -61.11914062 65.44628906 C-57.33859442 74.07292808 -50.43356858 77.51024748 -42 81 C-32.54523308 84.46328459 -21.88194374 84 -12 84 C-12 91.92 -12 99.84 -12 108 C-32.22411242 112.04482248 -53.46408117 108.97571898 -71 98 C-83.3386308 88.80096991 -90.52447285 77.17826444 -93.58203125 62.13671875 C-96.14924888 42.87059021 -91.9707913 24.61917923 -80.4375 8.8125 C-61.07477773 -14.04065608 -23.67074081 -18.56304473 0 0 Z M-57.53125 20.0703125 C-61.13651602 24.80701839 -62.83391376 29.16956882 -64 35 C-46.18 35 -28.36 35 -10 35 C-12.01866913 25.91598892 -13.82480745 20.39234395 -21 14.5625 C-33.41401202 8.09686874 -47.88762328 9.47142087 -57.53125 20.0703125 Z " fill="#001589" transform="translate(612,107)"/>
<path d="M0 0 C13.64600966 0.16324424 27.03440854 2.36775453 37.43505859 11.97705078 C48.71778447 24.23724053 49.72034721 41.74038925 49.84912109 57.61767578 C49.87718891 59.58448099 49.90585337 61.55127776 49.93505859 63.51806641 C49.97619916 66.57201907 50.01315264 69.62581393 50.03955078 72.67993164 C49.54306847 91.51507505 49.54306847 91.51507505 56.63818359 108.31689453 C56.63818359 108.97689453 56.63818359 109.63689453 56.63818359 110.31689453 C58.12318359 110.81189453 58.12318359 110.81189453 59.63818359 111.31689453 C57.75952471 116.09893532 54.48480601 118.4775207 49.88818359 120.56689453 C42.89923361 122.17972914 37.16243331 121.8278922 30.65771484 118.67236328 C27.33363495 116.44130772 25.6744428 113.73255514 23.63818359 110.31689453 C22.98076172 111.00525391 22.98076172 111.00525391 22.31005859 111.70751953 C13.20660988 120.51492114 2.00241658 122.4381125 -10.36181641 122.31689453 C-24.43286517 121.33764596 -34.73829735 117.92744118 -44.36181641 107.31689453 C-50.32533496 99.16137996 -51.03653309 88.33520639 -50.01806641 78.59033203 C-48.00904809 68.56915735 -42.71373813 61.0564278 -34.36181641 55.31689453 C-17.35287257 44.9426451 2.12231588 42.81861706 21.63818359 43.31689453 C19.54406319 36.28311364 18.02017296 31.27372794 11.63818359 27.31689453 C3.44036595 23.50395609 -6.51143227 24.25812415 -15.36181641 24.31689453 C-15.39068877 20.50441027 -15.40857132 16.69195383 -15.42431641 12.87939453 C-15.43269531 11.79078125 -15.44107422 10.70216797 -15.44970703 9.58056641 C-15.45292969 8.54609375 -15.45615234 7.51162109 -15.45947266 6.44580078 C-15.46470947 5.48746338 -15.46994629 4.52912598 -15.4753418 3.54174805 C-15.17504897 -2.34334563 -4.4265092 0.0058959 0 0 Z M-17.36181641 74.06689453 C-19.90317101 78.19659577 -20.656094 81.49074207 -20.36181641 86.31689453 C-18.91489189 90.96228376 -17.24039301 94.32484972 -13.36181641 97.31689453 C-6.51418472 100.5018395 0.19698504 100.00751301 7.26318359 97.81689453 C12.80372824 95.61777232 16.61983194 92.48241179 19.63818359 87.31689453 C21.46873966 82.14385554 22.02500393 77.30294407 22.26318359 71.87939453 C22.30185547 71.14785156 22.34052734 70.41630859 22.38037109 69.66259766 C22.47352343 67.88105921 22.55688646 66.09901331 22.63818359 64.31689453 C9.17694077 61.42401046 -7.39019664 63.86928905 -17.36181641 74.06689453 Z " fill="#001589" transform="translate(252.36181640625,94.68310546875)"/>
<path d="M0 0 C0 8.25 0 16.5 0 25 C-4.72676834 24.05464633 -8.80452363 22.64771007 -13.28125 20.9375 C-20.36032219 18.49644062 -28.87714889 17.46147957 -36 20.25 C-38.9817296 21.98934226 -40.50077444 22.91335914 -42 26 C-42.65000866 29.81880087 -42.43719562 31.38189585 -40.1875 34.5625 C-35.11179613 38.98964171 -28.36765439 41.17159181 -22.11328125 43.40234375 C-9.96543844 47.73577626 1.54920791 52.49955987 8.24609375 64.171875 C12.15301757 72.44536073 12.4327918 82.0516802 9.875 90.8125 C5.73272437 101.10137819 -0.62510449 107.30099285 -10.4921875 112.25 C-29.88208389 120.26527632 -51.70609502 117.43130166 -71 111 C-71 102.42 -71 93.84 -71 85 C-66.84397994 85 -64.97583743 85.70512986 -61.25 87.375 C-50.57005416 92.15581345 -38.74246581 94.03058663 -27.19140625 91.34765625 C-23.56273216 89.79631485 -22.09411194 88.18473825 -20.3125 84.6875 C-19.94402871 80.33953873 -20.2238909 77.38032108 -23 74 C-27.99488069 70.30909259 -34.14207085 68.57451895 -39.93676758 66.515625 C-53.0509803 61.84505505 -64.48555862 56.72997126 -71.375 44 C-74.54757762 36.20185752 -74.26905992 26.59514511 -71.5625 18.6875 C-66.63362331 8.36605438 -58.60259715 1.88462749 -48 -2 C-33.00952107 -6.54728484 -14.36579343 -7.18289672 0 0 Z " fill="#001589" transform="translate(402,99)"/>
<path d="M0 0 C0 8.91 0 17.82 0 27 C9.24 27 18.48 27 28 27 C28 34.92 28 42.84 28 51 C18.76 51 9.52 51 0 51 C0.07415449 58.66859759 0.15713219 66.33606253 0.26245117 74.00415039 C0.29561126 76.61020958 0.32367065 79.21633904 0.34643555 81.82250977 C0.38014489 85.5785911 0.43247112 89.33403355 0.48828125 93.08984375 C0.49467117 94.24645004 0.5010611 95.40305634 0.50764465 96.5947113 C0.64411415 104.18176952 1.00526791 111.57744904 6.1875 117.5 C11.85363542 120.52193889 16.21739629 120.42846883 22.1875 118.625 C22.98542969 118.34914063 23.78335938 118.07328125 24.60546875 117.7890625 C27 117 27 117 32 116 C32 124.91 32 133.82 32 143 C17.01447304 147.28157913 -1.10478641 148.75596189 -15.3125 141.25 C-23.13895601 134.69761823 -27.31749507 127.11464099 -29 117 C-29.08543958 114.79258851 -29.11774922 112.58283964 -29.11352539 110.3737793 C-29.11367142 109.72931351 -29.11381744 109.08484772 -29.1139679 108.42085266 C-29.11327506 106.30527296 -29.10551231 104.18978294 -29.09765625 102.07421875 C-29.09578983 100.60162911 -29.09436699 99.12903885 -29.09336853 97.65644836 C-29.08956096 93.79147612 -29.07974579 89.9265418 -29.06866455 86.06158447 C-29.0584125 82.11332716 -29.05386279 78.16506368 -29.04882812 74.21679688 C-29.03812187 66.47784534 -29.02053941 58.73893283 -29 51 C-35.93 51 -42.86 51 -50 51 C-50 43.08 -50 35.16 -50 27 C-43.07 27 -36.14 27 -29 27 C-29 19.08 -29 11.16 -29 3 C-24.05 2.2575 -24.05 2.2575 -19 1.5 C-17.46472656 1.26506836 -17.46472656 1.26506836 -15.8984375 1.02539062 C-15.06570313 0.90357422 -14.23296875 0.78175781 -13.375 0.65625 C-12.53710938 0.53056641 -11.69921875 0.40488281 -10.8359375 0.27539062 C-7.23970821 -0.07382999 -3.61314547 0 0 0 Z " fill="#001589" transform="translate(474,70)"/>
<path d="M0 0 C4.35303748 2.30012351 8.02294725 5.19891092 11.83789062 8.29150391 C14.32785816 10.25907311 16.88276439 12.11921901 19.453125 13.98046875 C21.36509551 15.38211411 23.27655461 16.78445735 25.1875 18.1875 C26.56989868 19.18426758 26.56989868 19.18426758 27.98022461 20.20117188 C33.07592389 24.01879983 36.51746471 26.68341597 38 33 C38.1726312 40.42314171 35.04027429 44.49835278 30.5625 50.1875 C29.61503906 51.42717529 29.61503906 51.42717529 28.6484375 52.69189453 C27.37392369 54.35645351 26.09291292 56.0160598 24.80517578 57.67041016 C23.19708674 59.74565842 21.62018977 61.83890963 20.05859375 63.94921875 C10.33896432 76.97262636 10.33896432 76.97262636 4.61328125 78.734375 C-3.15205339 78.78711072 -7.97903629 75.57627115 -14 71 C-14.69786621 70.47438477 -15.39573242 69.94876953 -16.11474609 69.40722656 C-21.47372908 65.35135011 -26.78571455 61.24061487 -32 57 C-32.74950928 56.39349609 -33.49901855 55.78699219 -34.27124023 55.16210938 C-34.98868408 54.56205078 -35.70612793 53.96199219 -36.4453125 53.34375 C-37.08871582 52.80943359 -37.73211914 52.27511719 -38.39501953 51.72460938 C-40.70932537 49.23780432 -41.43515089 46.67616629 -42.13671875 43.40625 C-41.72449218 36.15106236 -36.64479517 30.42795511 -32.4375 24.875 C-31.81705811 24.04621338 -31.19661621 23.21742676 -30.55737305 22.36352539 C-28.71192659 19.90364401 -26.85636784 17.4516438 -25 15 C-23.9865875 13.64742878 -22.97353277 12.29458939 -21.9609375 10.94140625 C-15.44379536 2.30535023 -11.44207777 -2.25175901 0 0 Z " fill="#0099A8" transform="translate(824,0)"/>
<path d="M0 0 C0.83611816 0.04922607 1.67223633 0.09845215 2.53369141 0.14916992 C5.16946945 0.31455498 7.80342082 0.4970261 10.4375 0.6875 C11.71101318 0.77837891 11.71101318 0.77837891 13.01025391 0.87109375 C15.44709051 1.05697426 17.87923711 1.27241048 20.3125 1.5 C21.42540405 1.58664917 21.42540405 1.58664917 22.56079102 1.67504883 C27.32973482 2.16903206 30.12826512 3.18899154 33.4375 6.6875 C35.7948156 11.05386297 35.54188633 15.03782898 35.15234375 19.83984375 C35.09478409 20.61759659 35.03722443 21.39534943 34.97792053 22.19667053 C34.85197618 23.83692887 34.71963502 25.47670706 34.58129883 27.1159668 C34.37607507 29.61192485 34.20763472 32.10862772 34.04101562 34.60742188 C33.91370192 36.20590945 33.78421559 37.80422576 33.65234375 39.40234375 C33.60625473 40.14314682 33.56016571 40.88394989 33.51268005 41.64720154 C32.99800094 47.12670223 31.49782774 49.91516206 27.4375 53.6875 C25.13598633 54.40039062 25.13598633 54.40039062 22.76953125 54.34375 C21.88450928 54.33496826 20.9994873 54.32618652 20.08764648 54.31713867 C19.15122314 54.27435791 18.2147998 54.23157715 17.25 54.1875 C15.79799194 54.15136597 15.79799194 54.15136597 14.31665039 54.11450195 C7.98957463 53.9129103 1.67446065 53.4973643 -4.625 52.875 C-5.35549561 52.80539062 -6.08599121 52.73578125 -6.83862305 52.6640625 C-11.07306781 52.16101944 -14.19125859 51.34119278 -17.5625 48.6875 C-22.11929607 41.41050988 -19.40796214 30.03127661 -18.6875 21.875 C-18.60886719 20.87791016 -18.53023437 19.88082031 -18.44921875 18.85351562 C-17.41521148 6.8988008 -17.41521148 6.8988008 -13.625 2.375 C-9.42038955 -1.06513583 -5.11108897 -0.30642142 0 0 Z " fill="#98989A" transform="translate(857.5625,207.3125)"/>
<path d="M0 0 C2.475 0.495 2.475 0.495 5 1 C6.8125 4.5625 6.8125 4.5625 8 8 C8.99 5.36 9.98 2.72 11 0 C12.65 0 14.3 0 16 0 C16 5.28 16 10.56 16 16 C15.01 16 14.02 16 13 16 C12.67 13.69 12.34 11.38 12 9 C11.01 11.31 10.02 13.62 9 16 C8.01 16 7.02 16 6 16 C5.34 14.35 4.68 12.7 4 11 C3.67 12.65 3.34 14.3 3 16 C2.01 16 1.02 16 0 16 C0 10.72 0 5.44 0 0 Z " fill="#001589" transform="translate(788,99)"/>
<path d="M0 0 C3.96 0 7.92 0 12 0 C12 0.99 12 1.98 12 3 C10.68 3 9.36 3 8 3 C8 7.29 8 11.58 8 16 C6.68 16 5.36 16 4 16 C4 11.71 4 7.42 4 3 C2.68 3 1.36 3 0 3 C0 2.01 0 1.02 0 0 Z " fill="#001489" transform="translate(774,99)"/>
</svg>
